<svg width="16" height="16" viewBox="0 0 16 16" fill="none" xmlns="http://www.w3.org/2000/svg">
<path fill-rule="evenodd" clip-rule="evenodd" d="M8.23441 2.63462C8.38443 2.48464 8.58787 2.40039 8.80001 2.40039C9.01214 2.40039 9.21558 2.48464 9.36561 2.63462L14.1656 7.43462C14.3156 7.58464 14.3998 7.78809 14.3998 8.00022C14.3998 8.21235 14.3156 8.4158 14.1656 8.56582L9.36561 13.3658C9.21472 13.5115 9.01264 13.5922 8.80289 13.5904C8.59313 13.5885 8.39248 13.5044 8.24415 13.3561C8.09582 13.2077 8.01169 13.0071 8.00987 12.7973C8.00804 12.5876 8.08868 12.3855 8.23441 12.2346L11.6688 8.80022H2.40001C2.18783 8.80022 1.98435 8.71593 1.83432 8.5659C1.68429 8.41588 1.60001 8.21239 1.60001 8.00022C1.60001 7.78805 1.68429 7.58456 1.83432 7.43453C1.98435 7.28451 2.18783 7.20022 2.40001 7.20022H11.6688L8.23441 3.76582C8.08443 3.6158 8.00018 3.41235 8.00018 3.20022C8.00018 2.98809 8.08443 2.78464 8.23441 2.63462V2.63462Z" fill="white"/>
</svg>
