<svg width="32" height="24" viewBox="0 0 32 24" fill="none" xmlns="http://www.w3.org/2000/svg">
<path fill-rule="evenodd" clip-rule="evenodd" d="M0.732788 11.9998C2.77119 5.5086 8.83519 0.799805 16 0.799805C23.1648 0.799805 29.2288 5.5086 31.2672 11.9998C29.2288 18.491 23.1648 23.1998 16 23.1998C8.83519 23.1998 2.77119 18.491 0.732788 11.9998ZM22.4 11.9998C22.4 13.6972 21.7257 15.3251 20.5255 16.5253C19.3252 17.7255 17.6974 18.3998 16 18.3998C14.3026 18.3998 12.6747 17.7255 11.4745 16.5253C10.2743 15.3251 9.59999 13.6972 9.59999 11.9998C9.59999 10.3024 10.2743 8.67455 11.4745 7.47432C12.6747 6.27409 14.3026 5.59981 16 5.59981C17.6974 5.59981 19.3252 6.27409 20.5255 7.47432C21.7257 8.67455 22.4 10.3024 22.4 11.9998V11.9998Z" fill="#6B7280"/>
</svg>
