<svg width="32" height="32" viewBox="0 0 32 32" fill="none" xmlns="http://www.w3.org/2000/svg">
<path d="M17.6 4.8002C17.6 4.37585 17.4314 3.96888 17.1314 3.66882C16.8313 3.36877 16.4243 3.2002 16 3.2002C15.5756 3.2002 15.1687 3.36877 14.8686 3.66882C14.5686 3.96888 14.4 4.37585 14.4 4.8002V6.4002C14.4 6.82454 14.5686 7.23151 14.8686 7.53157C15.1687 7.83162 15.5756 8.0002 16 8.0002C16.4243 8.0002 16.8313 7.83162 17.1314 7.53157C17.4314 7.23151 17.6 6.82454 17.6 6.4002V4.8002ZM25.0512 9.21139C25.3426 8.90963 25.5039 8.50547 25.5003 8.08595C25.4966 7.66644 25.3284 7.26514 25.0317 6.96849C24.7351 6.67183 24.3338 6.50356 23.9142 6.49992C23.4947 6.49627 23.0906 6.65754 22.7888 6.94899L21.6576 8.0802C21.3661 8.38196 21.2049 8.78612 21.2085 9.20564C21.2122 9.62515 21.3804 10.0265 21.6771 10.3231C21.9737 10.6198 22.375 10.788 22.7946 10.7917C23.2141 10.7953 23.6182 10.634 23.92 10.3426L25.0512 9.21139ZM28.8 16.0002C28.8 16.4245 28.6314 16.8315 28.3314 17.1316C28.0313 17.4316 27.6243 17.6002 27.2 17.6002H25.6C25.1756 17.6002 24.7687 17.4316 24.4686 17.1316C24.1686 16.8315 24 16.4245 24 16.0002C24 15.5758 24.1686 15.1689 24.4686 14.8688C24.7687 14.5688 25.1756 14.4002 25.6 14.4002H27.2C27.6243 14.4002 28.0313 14.5688 28.3314 14.8688C28.6314 15.1689 28.8 15.5758 28.8 16.0002ZM8.08 10.3426C8.22759 10.4954 8.40414 10.6173 8.59935 10.7012C8.79456 10.785 9.00451 10.8291 9.21695 10.831C9.4294 10.8328 9.64009 10.7924 9.83672 10.7119C10.0334 10.6315 10.212 10.5127 10.3622 10.3624C10.5125 10.2122 10.6313 10.0336 10.7117 9.83692C10.7922 9.64029 10.8326 9.4296 10.8308 9.21715C10.829 9.00471 10.7848 8.79475 10.701 8.59955C10.6171 8.40434 10.4952 8.22779 10.3424 8.0802L9.2112 6.94899C8.90943 6.65754 8.50527 6.49627 8.08575 6.49992C7.66624 6.50356 7.26494 6.67183 6.96829 6.96849C6.67163 7.26514 6.50336 7.66644 6.49972 8.08595C6.49607 8.50547 6.65734 8.90963 6.9488 9.21139L8.08 10.3426V10.3426ZM8 16.0002C8 16.4245 7.83143 16.8315 7.53137 17.1316C7.23131 17.4316 6.82434 17.6002 6.4 17.6002H4.8C4.37565 17.6002 3.96868 17.4316 3.66863 17.1316C3.36857 16.8315 3.2 16.4245 3.2 16.0002C3.2 15.5758 3.36857 15.1689 3.66863 14.8688C3.96868 14.5688 4.37565 14.4002 4.8 14.4002H6.4C6.82434 14.4002 7.23131 14.5688 7.53137 14.8688C7.83143 15.1689 8 15.5758 8 16.0002ZM12.8 25.6002V24.0002H19.2V25.6002C19.2 26.4489 18.8629 27.2628 18.2627 27.8629C17.6626 28.4631 16.8487 28.8002 16 28.8002C15.1513 28.8002 14.3374 28.4631 13.7373 27.8629C13.1371 27.2628 12.8 26.4489 12.8 25.6002V25.6002ZM19.2 22.4002C19.224 21.8562 19.5328 21.3666 19.9632 21.0258C21.0075 20.2022 21.7693 19.0737 22.1426 17.7972C22.516 16.5208 22.4824 15.1596 22.0465 13.9031C21.6107 12.6466 20.7942 11.5571 19.7106 10.786C18.6269 10.0149 17.33 9.60055 16 9.60055C14.67 9.60055 13.3731 10.0149 12.2894 10.786C11.2058 11.5571 10.3893 12.6466 9.95345 13.9031C9.51758 15.1596 9.484 16.5208 9.85737 17.7972C10.2307 19.0737 10.9925 20.2022 12.0368 21.0258C12.4688 21.3666 12.776 21.8562 12.7984 22.4002H19.2016H19.2Z" fill="#6B7280"/>
</svg>
