<svg width="29" height="30" viewBox="0 0 29 30" fill="none" xmlns="http://www.w3.org/2000/svg">
<path fill-rule="evenodd" clip-rule="evenodd" d="M14.5 29.4001C18.3191 29.4001 21.9818 27.883 24.6823 25.1824C27.3828 22.4819 28.9 18.8192 28.9 15.0001C28.9 11.181 27.3828 7.51828 24.6823 4.81776C21.9818 2.11724 18.3191 0.600098 14.5 0.600098C10.6809 0.600098 7.01816 2.11724 4.31764 4.81776C1.61711 7.51828 0.0999756 11.181 0.0999756 15.0001C0.0999756 18.8192 1.61711 22.4819 4.31764 25.1824C7.01816 27.883 10.6809 29.4001 14.5 29.4001V29.4001ZM13.699 9.9025C13.4279 9.72164 13.1128 9.61776 12.7873 9.60195C12.4618 9.58614 12.1381 9.65899 11.8508 9.81272C11.5635 9.96646 11.3233 10.1953 11.1558 10.4749C10.9883 10.7544 10.8999 11.0742 10.9 11.4001V18.6001C10.8999 18.926 10.9883 19.2458 11.1558 19.5253C11.3233 19.8049 11.5635 20.0337 11.8508 20.1875C12.1381 20.3412 12.4618 20.4141 12.7873 20.3982C13.1128 20.3824 13.4279 20.2786 13.699 20.0977L19.099 16.4977C19.3455 16.3333 19.5476 16.1106 19.6874 15.8494C19.8272 15.5881 19.9004 15.2964 19.9004 15.0001C19.9004 14.7038 19.8272 14.4121 19.6874 14.1508C19.5476 13.8896 19.3455 13.6669 19.099 13.5025L13.699 9.9025V9.9025Z" fill="white"/>
</svg>
