<svg width="32" height="32" viewBox="0 0 32 32" fill="none" xmlns="http://www.w3.org/2000/svg">
<path fill-rule="evenodd" clip-rule="evenodd" d="M4.80001 4.7998C4.37567 4.7998 3.9687 4.96838 3.66864 5.26843C3.36858 5.56849 3.20001 5.97546 3.20001 6.3998C3.20001 6.82415 3.36858 7.23112 3.66864 7.53118C3.9687 7.83123 4.37567 7.9998 4.80001 7.9998V20.7998C4.80001 21.6485 5.13715 22.4624 5.73727 23.0625C6.33739 23.6627 7.15132 23.9998 8.00001 23.9998H12.1376L10.0688 26.0686C9.916 26.2162 9.7941 26.3928 9.71025 26.588C9.6264 26.7832 9.58226 26.9931 9.58041 27.2056C9.57857 27.418 9.61905 27.6287 9.6995 27.8253C9.77995 28.022 9.89875 28.2006 10.049 28.3508C10.1992 28.5011 10.3779 28.6199 10.5745 28.7003C10.7711 28.7808 10.9818 28.8213 11.1943 28.8194C11.4067 28.8176 11.6167 28.7734 11.8119 28.6896C12.0071 28.6057 12.1836 28.4838 12.3312 28.331L16 24.6622L19.6688 28.331C19.9706 28.6225 20.3747 28.7837 20.7943 28.7801C21.2138 28.7764 21.6151 28.6082 21.9117 28.3115C22.2084 28.0149 22.3766 27.6136 22.3803 27.194C22.3839 26.7745 22.2227 26.3704 21.9312 26.0686L19.8624 23.9998H24C24.8487 23.9998 25.6626 23.6627 26.2628 23.0625C26.8629 22.4624 27.2 21.6485 27.2 20.7998V7.9998C27.6244 7.9998 28.0313 7.83123 28.3314 7.53118C28.6314 7.23112 28.8 6.82415 28.8 6.3998C28.8 5.97546 28.6314 5.56849 28.3314 5.26843C28.0313 4.96838 27.6244 4.7998 27.2 4.7998H4.80001ZM22.4 11.1998C22.4 10.7755 22.2314 10.3685 21.9314 10.0684C21.6313 9.76838 21.2244 9.5998 20.8 9.5998C20.3757 9.5998 19.9687 9.76838 19.6686 10.0684C19.3686 10.3685 19.2 10.7755 19.2 11.1998V17.5998C19.2 18.0242 19.3686 18.4311 19.6686 18.7312C19.9687 19.0312 20.3757 19.1998 20.8 19.1998C21.2244 19.1998 21.6313 19.0312 21.9314 18.7312C22.2314 18.4311 22.4 18.0242 22.4 17.5998V11.1998ZM17.6 12.7998C17.6 12.3755 17.4314 11.9685 17.1314 11.6684C16.8313 11.3684 16.4244 11.1998 16 11.1998C15.5757 11.1998 15.1687 11.3684 14.8686 11.6684C14.5686 11.9685 14.4 12.3755 14.4 12.7998V17.5998C14.4 18.0242 14.5686 18.4311 14.8686 18.7312C15.1687 19.0312 15.5757 19.1998 16 19.1998C16.4244 19.1998 16.8313 19.0312 17.1314 18.7312C17.4314 18.4311 17.6 18.0242 17.6 17.5998V12.7998ZM12.8 14.3998C12.8 13.9755 12.6314 13.5685 12.3314 13.2684C12.0313 12.9684 11.6244 12.7998 11.2 12.7998C10.7757 12.7998 10.3687 12.9684 10.0686 13.2684C9.76858 13.5685 9.60001 13.9755 9.60001 14.3998V17.5998C9.60001 18.0242 9.76858 18.4311 10.0686 18.7312C10.3687 19.0312 10.7757 19.1998 11.2 19.1998C11.6244 19.1998 12.0313 19.0312 12.3314 18.7312C12.6314 18.4311 12.8 18.0242 12.8 17.5998V14.3998Z" fill="#6B7280"/>
</svg>
